<?xml version="1.0" encoding="UTF-8" standalone="no"?>
<!-- Created with Inkscape (http://www.inkscape.org/) -->

<svg
   xmlns:dc="http://purl.org/dc/elements/1.1/"
   xmlns:cc="http://creativecommons.org/ns#"
   xmlns:rdf="http://www.w3.org/1999/02/22-rdf-syntax-ns#"
   xmlns:svg="http://www.w3.org/2000/svg"
   xmlns="http://www.w3.org/2000/svg"
   xmlns:sodipodi="http://sodipodi.sourceforge.net/DTD/sodipodi-0.dtd"
   xmlns:inkscape="http://www.inkscape.org/namespaces/inkscape"
   width="16px"
   height="16px"
   id="svg3636"
   version="1.1"
   inkscape:version="0.47 r22583"
   sodipodi:docname="mini icon.svg">
  <defs
     id="defs3638">
    <inkscape:perspective
       sodipodi:type="inkscape:persp3d"
       inkscape:vp_x="0 : 8 : 1"
       inkscape:vp_y="0 : 1000 : 0"
       inkscape:vp_z="16 : 8 : 1"
       inkscape:persp3d-origin="8 : 5.3333333 : 1"
       id="perspective3644" />
    <inkscape:perspective
       id="perspective3662"
       inkscape:persp3d-origin="0.5 : 0.33333333 : 1"
       inkscape:vp_z="1 : 0.5 : 1"
       inkscape:vp_y="0 : 1000 : 0"
       inkscape:vp_x="0 : 0.5 : 1"
       sodipodi:type="inkscape:persp3d" />
  </defs>
  <sodipodi:namedview
     id="base"
     pagecolor="#ffffff"
     bordercolor="#666666"
     borderopacity="1.0"
     inkscape:pageopacity="0.0"
     inkscape:pageshadow="2"
     inkscape:zoom="24.88132"
     inkscape:cx="5.9886788"
     inkscape:cy="7.218074"
     inkscape:current-layer="layer1"
     showgrid="true"
     inkscape:grid-bbox="true"
     inkscape:document-units="px"
     inkscape:snap-grids="true"
     inkscape:window-width="1152"
     inkscape:window-height="808"
     inkscape:window-x="-4"
     inkscape:window-y="-4"
     inkscape:window-maximized="1">
    <inkscape:grid
       type="xygrid"
       id="grid3718"
       empspacing="2"
       visible="true"
       enabled="true"
       snapvisiblegridlinesonly="true"
       spacingx="0.5px"
       spacingy="0.5px" />
  </sodipodi:namedview>
  <metadata
     id="metadata3641">
    <rdf:RDF>
      <cc:Work
         rdf:about="">
        <dc:format>image/svg+xml</dc:format>
        <dc:type
           rdf:resource="http://purl.org/dc/dcmitype/StillImage" />
        <dc:title />
      </cc:Work>
    </rdf:RDF>
  </metadata>
  <g
     id="layer1"
     inkscape:label="Layer 1"
     inkscape:groupmode="layer">
    <g
       id="g3640"
       style="fill:none;stroke:#00ccff;stroke-width:15.33027545;stroke-miterlimit:4;stroke-opacity:1;stroke-dasharray:none"
       transform="matrix(0.0652304,0,0,0.0652304,-5.4050098,-2.2318357)">
      <path
         sodipodi:open="true"
         sodipodi:end="4.0142573"
         sodipodi:start="2.268928"
         sodipodi:type="arc"
         style="fill:none;stroke:#00ccff;stroke-width:15.33027554;stroke-miterlimit:4;stroke-opacity:1;stroke-dasharray:none"
         id="path2828"
         sodipodi:cx="205"
         sodipodi:cy="157.36218"
         sodipodi:rx="115"
         sodipodi:ry="115"
         d="m 131.07943,245.4573 a 115,115 0 0 1 0,-176.19023"
         transform="matrix(-0.8660254,-0.5,0.5,-0.8660254,305.09692,395.93131)" />
      <path
         inkscape:transform-center-y="30.754447"
         inkscape:transform-center-x="-52.823303"
         sodipodi:nodetypes="cc"
         id="path3608"
         d="m 259.15846,187.51741 45.90306,27.14866"
         style="fill:none;stroke:#00ccff;stroke-width:23.33112335;stroke-linecap:butt;stroke-linejoin:miter;stroke-miterlimit:4;stroke-opacity:1;stroke-dasharray:none" />
    </g>
    <g
       id="g3648"
       style="fill:none;stroke:#00ccff;stroke-width:15.33027545;stroke-miterlimit:4;stroke-opacity:1;stroke-dasharray:none"
       transform="matrix(0.0652304,0,0,0.0652304,-5.4050098,-2.2318357)">
      <path
         sodipodi:open="true"
         sodipodi:end="6.1086524"
         sodipodi:start="4.3633231"
         transform="matrix(-0.8660254,-0.5,0.5,-0.8660254,305.09692,395.93131)"
         d="M 165.66768,49.297532 A 115,115 0 0 1 318.25289,137.39264"
         sodipodi:ry="115"
         sodipodi:rx="115"
         sodipodi:cy="157.36218"
         sodipodi:cx="205"
         id="path2820"
         style="fill:none;stroke:#00ccff;stroke-width:15.33027554;stroke-miterlimit:4;stroke-opacity:1;stroke-dasharray:none"
         sodipodi:type="arc" />
      <path
         style="fill:none;stroke:#00ccff;stroke-width:21.73174858;stroke-linecap:butt;stroke-linejoin:miter;stroke-miterlimit:4;stroke-opacity:1;stroke-dasharray:none"
         d="m 144.18139,187.51741 -38.02425,28.43463"
         id="path3622"
         sodipodi:nodetypes="cc"
         inkscape:transform-center-x="43.415592"
         inkscape:transform-center-y="32.976467" />
    </g>
    <g
       id="g3644"
       style="fill:none;stroke:#00ccff;stroke-width:15.33027545;stroke-miterlimit:4;stroke-opacity:1;stroke-dasharray:none"
       transform="matrix(0.0652304,0,0,0.0652304,-5.4050098,-2.2318357)">
      <path
         sodipodi:open="true"
         sodipodi:end="1.9198622"
         sodipodi:start="0.17453293"
         transform="matrix(-0.8660254,-0.5,0.5,-0.8660254,305.09692,395.93131)"
         d="M 318.25289,177.33172 A 115,115 0 0 1 165.66768,265.42683"
         sodipodi:ry="115"
         sodipodi:rx="115"
         sodipodi:cy="157.36218"
         sodipodi:cx="205"
         id="path2830"
         style="fill:none;stroke:#00ccff;stroke-width:15.33027554;stroke-miterlimit:4;stroke-opacity:1;stroke-dasharray:none"
         sodipodi:type="arc" />
      <path
         style="fill:none;stroke:#00ccff;stroke-width:24.36849785;stroke-linecap:butt;stroke-linejoin:miter;stroke-miterlimit:4;stroke-opacity:1;stroke-dasharray:none"
         d="m 207.17907,87.87062 -1e-5,-45.073455"
         id="path3626"
         sodipodi:nodetypes="cc"
         inkscape:transform-center-x="0.54117226"
         inkscape:transform-center-y="-51.666455" />
    </g>
    <g
       style="font-size:8px;font-style:normal;font-variant:normal;font-weight:bold;font-stretch:normal;fill:#d45500;fill-opacity:1;stroke:none;font-family:Arial;-inkscape-font-specification:Bitstream Vera Sans Bold"
       id="text3727"
       transform="matrix(1.1160394,0,0,1.2000001,1.4979525,-0.22812548)">
      <path
         d="m 3.5859375,9.7734371 0,-4.9999996 -0.5,0 -0.5,-1 3.4335937,0 c 0.6119756,5.7e-6 1.0566366,0.051438 1.3339844,0.1542969 0.2773391,0.10287 0.4993441,0.2858126 0.6660157,0.5488281 0.1666614,0.2630256 0.2499947,0.5638065 0.25,0.9023437 C 8.269526,5.8085974 8.143224,6.1634148 7.890625,6.4433594 7.6380162,6.7233101 7.2604124,6.8997422 6.7578125,6.9726562 7.0078085,7.118492 7.2141885,7.2786481 7.3769531,7.453125 7.539709,7.627606 7.7591098,7.9375016 8.0351563,8.3828125 l 0.5507812,1.390625 -1,0 L 6.515625,8.2539063 C 6.2187468,7.8085954 6.2061006,7.5855601 5.90625,7.4121094 5.5231959,7.190529 4.5859375,7.2734371 4.5859375,7.2734371 l 0,2.5 -1,0 z m 1,-3.4999996 c 0.5,0 1.5,0 2,0 0.3083751,0 0.5180876,-0.4605302 0.5144649,-0.768884 -0.0035,-0.2979736 -0.2164707,-0.731116 -0.5144649,-0.731116 -0.5,0 -1.2308907,-0.02085 -2,0 l 0,1.5 z"
         id="path3732"
         sodipodi:nodetypes="cccccsssscsccccaccccsascc"
         style="fill:#d45500;fill-opacity:1" />
    </g>
  </g>
</svg>
