<?xml version="1.0" encoding="UTF-8" standalone="no"?>
<!-- Created with Inkscape (http://www.inkscape.org/) -->

<svg
   xmlns:dc="http://purl.org/dc/elements/1.1/"
   xmlns:cc="http://creativecommons.org/ns#"
   xmlns:rdf="http://www.w3.org/1999/02/22-rdf-syntax-ns#"
   xmlns:svg="http://www.w3.org/2000/svg"
   xmlns="http://www.w3.org/2000/svg"
   xmlns:sodipodi="http://sodipodi.sourceforge.net/DTD/sodipodi-0.dtd"
   xmlns:inkscape="http://www.inkscape.org/namespaces/inkscape"
   width="128"
   height="128"
   id="svg2"
   version="1.1"
   inkscape:version="0.47 r22583"
   sodipodi:docname="r3t3 attempt.svg">
  <defs
     id="defs4">
    <inkscape:perspective
       sodipodi:type="inkscape:persp3d"
       inkscape:vp_x="0 : 526.18109 : 1"
       inkscape:vp_y="0 : 1000 : 0"
       inkscape:vp_z="744.09448 : 526.18109 : 1"
       inkscape:persp3d-origin="372.04724 : 350.78739 : 1"
       id="perspective10" />
    <inkscape:perspective
       id="perspective3615"
       inkscape:persp3d-origin="0.5 : 0.33333333 : 1"
       inkscape:vp_z="1 : 0.5 : 1"
       inkscape:vp_y="0 : 1000 : 0"
       inkscape:vp_x="0 : 0.5 : 1"
       sodipodi:type="inkscape:persp3d" />
  </defs>
  <sodipodi:namedview
     id="base"
     pagecolor="#ffffff"
     bordercolor="#666666"
     borderopacity="1.0"
     inkscape:pageopacity="0.0"
     inkscape:pageshadow="2"
     inkscape:zoom="4.3984375"
     inkscape:cx="68.313505"
     inkscape:cy="66.661083"
     inkscape:document-units="px"
     inkscape:current-layer="layer1"
     showgrid="true"
     inkscape:snap-grids="true"
     inkscape:window-width="1152"
     inkscape:window-height="808"
     inkscape:window-x="-4"
     inkscape:window-y="-4"
     inkscape:window-maximized="1"
     inkscape:snap-global="true"
     showguides="true">
    <inkscape:grid
       type="xygrid"
       id="grid2816"
       empspacing="4"
       visible="true"
       enabled="true"
       snapvisiblegridlinesonly="true" />
  </sodipodi:namedview>
  <metadata
     id="metadata7">
    <rdf:RDF>
      <cc:Work
         rdf:about="">
        <dc:format>image/svg+xml</dc:format>
        <dc:type
           rdf:resource="http://purl.org/dc/dcmitype/StillImage" />
        <dc:title />
      </cc:Work>
    </rdf:RDF>
  </metadata>
  <g
     inkscape:label="Layer 1"
     inkscape:groupmode="layer"
     id="layer1"
     transform="translate(-5.4939814,-120.35947)">
    <g
       id="g3640"
       style="fill:none;stroke:#00ccff;stroke-width:15.25004575;stroke-miterlimit:4;stroke-opacity:1;stroke-dasharray:none"
       transform="matrix(0.52458859,0,0,0.52458859,-38.721428,102.1755)">
      <path
         sodipodi:open="true"
         sodipodi:end="4.1015237"
         sodipodi:start="2.1816616"
         sodipodi:type="arc"
         style="fill:none;stroke:#00ccff;stroke-width:15.2500458;stroke-miterlimit:4;stroke-opacity:1;stroke-dasharray:none"
         id="path2828"
         sodipodi:cx="205"
         sodipodi:cy="157.36218"
         sodipodi:rx="115"
         sodipodi:ry="115"
         d="M 139.03871,251.56467 C 87.012112,215.13525 74.368101,143.42748 110.79752,91.400889 118.492,80.412026 128.04984,70.854186 139.03871,63.1597"
         transform="matrix(-0.8660254,-0.5,0.5,-0.8660254,305.09692,395.93131)" />
      <path
         inkscape:transform-center-y="19.965878"
         inkscape:transform-center-x="-35.12964"
         sodipodi:nodetypes="cc"
         id="path3608"
         d="m 274.53412,197.04108 30.5274,17.62499"
         style="fill:none;stroke:#00ccff;stroke-width:15.25004575;stroke-linecap:butt;stroke-linejoin:miter;stroke-miterlimit:4;stroke-opacity:1;stroke-dasharray:none" />
    </g>
    <g
       id="g3648"
       style="fill:none;stroke:#00ccff;stroke-width:15.25004575;stroke-miterlimit:4;stroke-opacity:1;stroke-dasharray:none"
       transform="matrix(0.52458859,0,0,0.52458859,-38.721428,102.1755)">
      <path
         sodipodi:open="true"
         sodipodi:end="6.1959188"
         sodipodi:start="4.2760567"
         transform="matrix(-0.8660254,-0.5,0.5,-0.8660254,305.09692,395.93131)"
         d="m 156.3989,53.136786 c 57.5621,-26.841645 125.98485,-1.937797 152.8265,55.624304 5.66939,12.15805 9.1678,25.2143 10.33699,38.57818"
         sodipodi:ry="115"
         sodipodi:rx="115"
         sodipodi:cy="157.36218"
         sodipodi:cx="205"
         id="path2820"
         style="fill:none;stroke:#00ccff;stroke-width:15.2500458;stroke-miterlimit:4;stroke-opacity:1;stroke-dasharray:none"
         sodipodi:type="arc" />
      <path
         style="fill:none;stroke:#00ccff;stroke-width:15.25004575;stroke-linecap:butt;stroke-linejoin:miter;stroke-miterlimit:4;stroke-opacity:1;stroke-dasharray:none"
         d="m 136.68453,198.32704 -30.52739,17.625"
         id="path3622"
         sodipodi:nodetypes="cc"
         inkscape:transform-center-x="34.855774"
         inkscape:transform-center-y="20.440225" />
    </g>
    <g
       id="g3644"
       style="fill:none;stroke:#00ccff;stroke-width:15.25004575;stroke-miterlimit:4;stroke-opacity:1;stroke-dasharray:none"
       transform="matrix(0.52458859,0,0,0.52458859,-38.721428,102.1755)">
      <path
         sodipodi:open="true"
         sodipodi:end="2.0071286"
         sodipodi:start="0.087266463"
         transform="matrix(-0.8660254,-0.5,0.5,-0.8660254,305.09692,395.93131)"
         d="m 319.56239,167.38509 c -5.5355,63.27106 -61.31424,110.07498 -124.5853,104.53948 -13.36388,-1.16919 -26.42013,-4.6676 -38.57819,-10.33699"
         sodipodi:ry="115"
         sodipodi:rx="115"
         sodipodi:cy="157.36218"
         sodipodi:cx="205"
         id="path2830"
         style="fill:none;stroke:#00ccff;stroke-width:15.2500458;stroke-miterlimit:4;stroke-opacity:1;stroke-dasharray:none"
         sodipodi:type="arc" />
      <path
         style="fill:none;stroke:#00ccff;stroke-width:15.25004575;stroke-linecap:butt;stroke-linejoin:miter;stroke-miterlimit:4;stroke-opacity:1;stroke-dasharray:none"
         d="m 206.25487,78.047164 -1e-5,-35.249999"
         id="path3626"
         sodipodi:nodetypes="cc"
         inkscape:transform-center-x="0.27386687"
         inkscape:transform-center-y="-40.406099" />
    </g>
    <g
       id="g3632"
       style="font-size:75.54075623000000000px;font-style:italic;font-variant:normal;font-weight:normal;font-stretch:normal;fill:#d45500;fill-opacity:0.33333333999999998;stroke:none;font-family:Sylfaen;-inkscape-font-specification:Sylfaen Italic"
       transform="translate(23,15)">
      <path
         sodipodi:nodetypes="cssscccccccccccsccccsccccc"
         id="path3634"
         style="fill:#d45500;fill-opacity:0.33333333999999998;font-family:Sylfaen;-inkscape-font-specification:Sylfaen Italic"
         d="m 55.493981,172.35947 c 3.491763,3e-5 9,0 10,0 3.713019,0 4.318487,-0.73349 6.819032,-3.24171 1.418497,-1.4262 2.478943,-3.17209 3.181343,-5.23769 2.465108,-7.25403 -0.754546,-10.52055 -10.000375,-10.5206 -1,0 -2,0 -3,0 -2.097716,6.58184 -5.52747,12.64496 -7,19 z m 11.999995,-23 c 6.836,5e-5 11.655801,1.2297 13.936582,3.3444 2.67258,2.48365 3.285795,5.85249 1.839646,10.10653 -2.583601,6.64491 -9.111482,11.34024 -15.776223,13.54907 2.180794,1.25411 3.080011,3.51647 3.871545,7.91808 0,0 0.128456,-0.91808 2.128455,11.08192 2.000001,1 5,1 5,1 1,1 1,3 -0.05343,4 -3.970566,-0.14327 -9.946575,0 -10.946575,-1 -1,-1 -3.212706,-12.9057 -3.212706,-12.9057 -0.900646,-6.54094 -4.844717,-10.09427 -9.787294,-10.0943 -2.56628,8.1834 -5.999994,20 -8.999995,23 0,1 -12.827882,1 -12.827882,1 -0.663756,-0.77516 3.327882,-2 4.827882,-3 l 3,-2 14.999995,-42 -6,0 c -1.999995,0 -4.999995,-3 -3.999995,-4 l 21.999995,0 z" />
    </g>
    <g
       transform="translate(10.000005,7)"
       style="font-size:75.54075623000000000px;font-style:italic;font-variant:normal;font-weight:normal;font-stretch:normal;fill:#d45500;fill-opacity:0.66666669000000001;stroke:none;font-family:Sylfaen;-inkscape-font-specification:Sylfaen Italic"
       id="text3628-1">
      <path
         d="m 55.493981,172.35947 c 3.491763,3e-5 9,0 10,0 3.713019,0 4.318487,-0.73349 6.819032,-3.24171 1.418497,-1.4262 2.478943,-3.17209 3.181343,-5.23769 2.465108,-7.25403 -0.754546,-10.52055 -10.000375,-10.5206 -1,0 -2,0 -3,0 -2.097716,6.58184 -5.52747,12.64496 -7,19 z m 11.999995,-23 c 6.836,5e-5 11.655801,1.2297 13.936582,3.3444 2.67258,2.48365 3.285795,5.85249 1.839646,10.10653 -2.583601,6.64491 -9.111482,11.34024 -15.776223,13.54907 2.180794,1.25411 3.080011,3.51647 3.871545,7.91808 0,0 0.128456,-0.91808 2.128455,11.08192 2.000001,1 5,1 5,1 1,1 1,3 -0.05343,4 -3.970566,-0.14327 -9.946575,0 -10.946575,-1 -1,-1 -3.212706,-12.9057 -3.212706,-12.9057 -0.900646,-6.54094 -4.844717,-10.09427 -9.787294,-10.0943 -2.56628,8.1834 -5.999994,20 -8.999995,23 0,1 -12.827882,1 -12.827882,1 -0.663756,-0.77516 3.327882,-2 4.827882,-3 l 3,-2 14.999995,-42 -6,0 c -1.999995,0 -4.999995,-3 -3.999995,-4 l 21.999995,0 z"
         style="fill:#d45500;fill-opacity:0.66666669000000001;font-family:Sylfaen;-inkscape-font-specification:Sylfaen Italic"
         id="path3605-7"
         sodipodi:nodetypes="cssscccccccccccsccccsccccc" />
    </g>
    <g
       style="font-size:75.54075623000000000px;font-style:italic;font-variant:normal;font-weight:normal;font-stretch:normal;fill:#d45500;fill-opacity:1;stroke:none;font-family:Sylfaen;-inkscape-font-specification:Sylfaen Italic"
       id="text3628"
       transform="translate(-1.9999946,-1)">
      <path
         d="m 55.493981,172.35947 c 3.491763,3e-5 9,0 10,0 3.713019,0 4.318487,-0.73349 6.819032,-3.24171 1.418497,-1.4262 2.478943,-3.17209 3.181343,-5.23769 2.465108,-7.25403 -0.754546,-10.52055 -10.000375,-10.5206 -1,0 -2,0 -3,0 -2.097716,6.58184 -5.52747,12.64496 -7,19 z m 11.999995,-23 c 6.836,5e-5 11.655801,1.2297 13.936582,3.3444 2.67258,2.48365 3.285795,5.85249 1.839646,10.10653 -2.583601,6.64491 -9.111482,11.34024 -15.776223,13.54907 2.180794,1.25411 3.080011,3.51647 3.871545,7.91808 0,0 0.128456,-0.91808 2.128455,11.08192 2.000001,1 5,1 5,1 1,1 1,3 -0.05343,4 -3.970566,-0.14327 -9.946575,0 -10.946575,-1 -1,-1 -3.212706,-12.9057 -3.212706,-12.9057 -0.900646,-6.54094 -4.844717,-10.09427 -9.787294,-10.0943 -2.56628,8.1834 -5.999994,20 -8.999995,23 0,1 -12.827882,1 -12.827882,1 -0.663756,-0.77516 3.327882,-2 4.827882,-3 l 3,-2 14.999995,-42 -6,0 c -1.999995,0 -4.999995,-3 -3.999995,-4 l 21.999995,0 z"
         style="fill:#d45500;font-family:Sylfaen;-inkscape-font-specification:Sylfaen Italic"
         id="path3605"
         sodipodi:nodetypes="cssscccccccccccsccccsccccc" />
    </g>
  </g>
</svg>
